<mxfile host="app.diagrams.net" modified="2024-04-10T16:10:34.116Z" agent="Mozilla/5.0 (Windows NT 10.0; Win64; x64) AppleWebKit/537.36 (KHTML, like Gecko) Chrome/123.0.0.0 Safari/537.36" etag="-HZLbvjE-0l4Zwtnol2q" version="24.2.3" type="device">
  <diagram name="Page-1" id="knucLsfNysEEauxZiomg">
    <mxGraphModel dx="930" dy="1166" grid="1" gridSize="10" guides="1" tooltips="1" connect="1" arrows="1" fold="1" page="1" pageScale="1" pageWidth="850" pageHeight="1100" background="none" math="0" shadow="0">
      <root>
        <mxCell id="0" />
        <mxCell id="1" parent="0" />
        <mxCell id="cFev3wSajb951gtCsFEo-1" value="Post" style="rounded=0;whiteSpace=wrap;html=1;" vertex="1" parent="1">
          <mxGeometry x="120" y="520" width="160" height="80" as="geometry" />
        </mxCell>
        <mxCell id="cFev3wSajb951gtCsFEo-2" value="post_id" style="ellipse;whiteSpace=wrap;html=1;fillColor=#e1d5e7;strokeColor=#9673a6;" vertex="1" parent="1">
          <mxGeometry x="10" y="415" width="60" height="40" as="geometry" />
        </mxCell>
        <mxCell id="cFev3wSajb951gtCsFEo-3" value="post_name" style="ellipse;whiteSpace=wrap;html=1;" vertex="1" parent="1">
          <mxGeometry x="70" y="415" width="70" height="40" as="geometry" />
        </mxCell>
        <mxCell id="cFev3wSajb951gtCsFEo-5" value="com_id" style="ellipse;whiteSpace=wrap;html=1;" vertex="1" parent="1">
          <mxGeometry x="140" y="417.5" width="60" height="35" as="geometry" />
        </mxCell>
        <mxCell id="cFev3wSajb951gtCsFEo-7" value="data" style="ellipse;whiteSpace=wrap;html=1;" vertex="1" parent="1">
          <mxGeometry x="280" y="420" width="50" height="30" as="geometry" />
        </mxCell>
        <mxCell id="cFev3wSajb951gtCsFEo-8" value="description" style="ellipse;whiteSpace=wrap;html=1;" vertex="1" parent="1">
          <mxGeometry x="330" y="415" width="60" height="45" as="geometry" />
        </mxCell>
        <mxCell id="cFev3wSajb951gtCsFEo-9" value="" style="endArrow=none;html=1;rounded=0;exitX=0;exitY=0;exitDx=0;exitDy=0;entryX=0.5;entryY=1;entryDx=0;entryDy=0;" edge="1" parent="1" source="cFev3wSajb951gtCsFEo-1" target="cFev3wSajb951gtCsFEo-2">
          <mxGeometry width="50" height="50" relative="1" as="geometry">
            <mxPoint x="60" y="495" as="sourcePoint" />
            <mxPoint x="110" y="445" as="targetPoint" />
          </mxGeometry>
        </mxCell>
        <mxCell id="cFev3wSajb951gtCsFEo-10" value="" style="endArrow=none;html=1;rounded=0;exitX=0.129;exitY=0.001;exitDx=0;exitDy=0;entryX=0.5;entryY=1;entryDx=0;entryDy=0;exitPerimeter=0;" edge="1" parent="1" source="cFev3wSajb951gtCsFEo-1" target="cFev3wSajb951gtCsFEo-3">
          <mxGeometry width="50" height="50" relative="1" as="geometry">
            <mxPoint x="220" y="485" as="sourcePoint" />
            <mxPoint x="130" y="435" as="targetPoint" />
          </mxGeometry>
        </mxCell>
        <mxCell id="cFev3wSajb951gtCsFEo-11" value="" style="endArrow=none;html=1;rounded=0;exitX=0.413;exitY=-0.015;exitDx=0;exitDy=0;entryX=0.5;entryY=1;entryDx=0;entryDy=0;exitPerimeter=0;" edge="1" parent="1" source="cFev3wSajb951gtCsFEo-1" target="cFev3wSajb951gtCsFEo-5">
          <mxGeometry width="50" height="50" relative="1" as="geometry">
            <mxPoint x="310" y="485" as="sourcePoint" />
            <mxPoint x="220" y="435" as="targetPoint" />
          </mxGeometry>
        </mxCell>
        <mxCell id="cFev3wSajb951gtCsFEo-12" value="" style="endArrow=none;html=1;rounded=0;entryX=0.5;entryY=1;entryDx=0;entryDy=0;" edge="1" parent="1" source="cFev3wSajb951gtCsFEo-1" target="cFev3wSajb951gtCsFEo-25">
          <mxGeometry width="50" height="50" relative="1" as="geometry">
            <mxPoint x="210" y="495" as="sourcePoint" />
            <mxPoint x="240" y="430" as="targetPoint" />
          </mxGeometry>
        </mxCell>
        <mxCell id="cFev3wSajb951gtCsFEo-13" value="" style="endArrow=none;html=1;rounded=0;" edge="1" parent="1" source="cFev3wSajb951gtCsFEo-1">
          <mxGeometry width="50" height="50" relative="1" as="geometry">
            <mxPoint x="250" y="495" as="sourcePoint" />
            <mxPoint x="298.4" y="450" as="targetPoint" />
          </mxGeometry>
        </mxCell>
        <mxCell id="cFev3wSajb951gtCsFEo-14" value="User" style="rounded=0;whiteSpace=wrap;html=1;" vertex="1" parent="1">
          <mxGeometry x="600" y="520" width="160" height="80" as="geometry" />
        </mxCell>
        <mxCell id="cFev3wSajb951gtCsFEo-15" value="user_id" style="ellipse;whiteSpace=wrap;html=1;fillColor=#e1d5e7;strokeColor=#9673a6;" vertex="1" parent="1">
          <mxGeometry x="480" y="435" width="60" height="40" as="geometry" />
        </mxCell>
        <mxCell id="cFev3wSajb951gtCsFEo-16" value="username" style="ellipse;whiteSpace=wrap;html=1;" vertex="1" parent="1">
          <mxGeometry x="540" y="435" width="70" height="40" as="geometry" />
        </mxCell>
        <mxCell id="cFev3wSajb951gtCsFEo-17" value="email" style="ellipse;whiteSpace=wrap;html=1;" vertex="1" parent="1">
          <mxGeometry x="595" y="395" width="70" height="40" as="geometry" />
        </mxCell>
        <mxCell id="cFev3wSajb951gtCsFEo-18" value="password" style="ellipse;whiteSpace=wrap;html=1;" vertex="1" parent="1">
          <mxGeometry x="705" y="420" width="60" height="45" as="geometry" />
        </mxCell>
        <mxCell id="cFev3wSajb951gtCsFEo-19" value="about" style="ellipse;whiteSpace=wrap;html=1;" vertex="1" parent="1">
          <mxGeometry x="765" y="455" width="60" height="40" as="geometry" />
        </mxCell>
        <mxCell id="cFev3wSajb951gtCsFEo-20" value="" style="endArrow=none;html=1;rounded=0;exitX=0;exitY=0;exitDx=0;exitDy=0;entryX=0.5;entryY=1;entryDx=0;entryDy=0;" edge="1" parent="1" source="cFev3wSajb951gtCsFEo-14" target="cFev3wSajb951gtCsFEo-15">
          <mxGeometry width="50" height="50" relative="1" as="geometry">
            <mxPoint x="510" y="495" as="sourcePoint" />
            <mxPoint x="560" y="445" as="targetPoint" />
          </mxGeometry>
        </mxCell>
        <mxCell id="cFev3wSajb951gtCsFEo-21" value="" style="endArrow=none;html=1;rounded=0;exitX=0.141;exitY=0.001;exitDx=0;exitDy=0;entryX=0.5;entryY=1;entryDx=0;entryDy=0;exitPerimeter=0;" edge="1" parent="1" source="cFev3wSajb951gtCsFEo-14" target="cFev3wSajb951gtCsFEo-16">
          <mxGeometry width="50" height="50" relative="1" as="geometry">
            <mxPoint x="670" y="485" as="sourcePoint" />
            <mxPoint x="580" y="435" as="targetPoint" />
          </mxGeometry>
        </mxCell>
        <mxCell id="cFev3wSajb951gtCsFEo-22" value="" style="endArrow=none;html=1;rounded=0;entryX=0.5;entryY=1;entryDx=0;entryDy=0;" edge="1" parent="1" target="cFev3wSajb951gtCsFEo-17">
          <mxGeometry width="50" height="50" relative="1" as="geometry">
            <mxPoint x="645" y="520" as="sourcePoint" />
            <mxPoint x="670" y="435" as="targetPoint" />
          </mxGeometry>
        </mxCell>
        <mxCell id="cFev3wSajb951gtCsFEo-23" value="" style="endArrow=none;html=1;rounded=0;exitX=0.75;exitY=0;exitDx=0;exitDy=0;entryX=0.5;entryY=1;entryDx=0;entryDy=0;" edge="1" parent="1" source="cFev3wSajb951gtCsFEo-14" target="cFev3wSajb951gtCsFEo-18">
          <mxGeometry width="50" height="50" relative="1" as="geometry">
            <mxPoint x="710" y="480" as="sourcePoint" />
            <mxPoint x="720" y="430" as="targetPoint" />
          </mxGeometry>
        </mxCell>
        <mxCell id="cFev3wSajb951gtCsFEo-24" value="" style="endArrow=none;html=1;rounded=0;exitX=1;exitY=0;exitDx=0;exitDy=0;" edge="1" parent="1" source="cFev3wSajb951gtCsFEo-14" target="cFev3wSajb951gtCsFEo-19">
          <mxGeometry width="50" height="50" relative="1" as="geometry">
            <mxPoint x="790" y="480" as="sourcePoint" />
            <mxPoint x="800" y="440" as="targetPoint" />
          </mxGeometry>
        </mxCell>
        <mxCell id="cFev3wSajb951gtCsFEo-25" value="image" style="ellipse;whiteSpace=wrap;html=1;" vertex="1" parent="1">
          <mxGeometry x="220" y="415" width="50" height="40" as="geometry" />
        </mxCell>
        <mxCell id="cFev3wSajb951gtCsFEo-26" value="" style="endArrow=none;html=1;rounded=0;" edge="1" parent="1" source="cFev3wSajb951gtCsFEo-1">
          <mxGeometry width="50" height="50" relative="1" as="geometry">
            <mxPoint x="280" y="515" as="sourcePoint" />
            <mxPoint x="340" y="455" as="targetPoint" />
          </mxGeometry>
        </mxCell>
        <mxCell id="cFev3wSajb951gtCsFEo-27" value="view" style="rhombus;whiteSpace=wrap;html=1;" vertex="1" parent="1">
          <mxGeometry x="440" y="520" width="80" height="80" as="geometry" />
        </mxCell>
        <mxCell id="cFev3wSajb951gtCsFEo-28" value="" style="endArrow=none;html=1;rounded=0;exitX=1;exitY=0.5;exitDx=0;exitDy=0;entryX=0;entryY=0.5;entryDx=0;entryDy=0;" edge="1" parent="1" source="cFev3wSajb951gtCsFEo-1" target="cFev3wSajb951gtCsFEo-27">
          <mxGeometry width="50" height="50" relative="1" as="geometry">
            <mxPoint x="470" y="625" as="sourcePoint" />
            <mxPoint x="520" y="575" as="targetPoint" />
          </mxGeometry>
        </mxCell>
        <mxCell id="cFev3wSajb951gtCsFEo-29" value="" style="endArrow=none;html=1;rounded=0;exitX=1;exitY=0.5;exitDx=0;exitDy=0;entryX=0;entryY=0.5;entryDx=0;entryDy=0;" edge="1" parent="1" source="cFev3wSajb951gtCsFEo-27" target="cFev3wSajb951gtCsFEo-14">
          <mxGeometry width="50" height="50" relative="1" as="geometry">
            <mxPoint x="330" y="625" as="sourcePoint" />
            <mxPoint x="380" y="575" as="targetPoint" />
          </mxGeometry>
        </mxCell>
        <mxCell id="cFev3wSajb951gtCsFEo-32" value="time" style="ellipse;whiteSpace=wrap;html=1;" vertex="1" parent="1">
          <mxGeometry x="340" y="475" width="60" height="30" as="geometry" />
        </mxCell>
        <mxCell id="cFev3wSajb951gtCsFEo-33" value="" style="endArrow=none;html=1;rounded=0;entryX=0;entryY=0.5;entryDx=0;entryDy=0;exitX=1;exitY=0.125;exitDx=0;exitDy=0;exitPerimeter=0;" edge="1" parent="1" source="cFev3wSajb951gtCsFEo-1" target="cFev3wSajb951gtCsFEo-32">
          <mxGeometry width="50" height="50" relative="1" as="geometry">
            <mxPoint x="270" y="535" as="sourcePoint" />
            <mxPoint x="320" y="485" as="targetPoint" />
          </mxGeometry>
        </mxCell>
        <mxCell id="cFev3wSajb951gtCsFEo-34" value="Comment" style="rounded=0;whiteSpace=wrap;html=1;" vertex="1" parent="1">
          <mxGeometry x="400" y="840" width="160" height="80" as="geometry" />
        </mxCell>
        <mxCell id="cFev3wSajb951gtCsFEo-35" value="c_id" style="ellipse;whiteSpace=wrap;html=1;fillColor=#e1d5e7;strokeColor=#9673a6;" vertex="1" parent="1">
          <mxGeometry x="300" y="730" width="70" height="40" as="geometry" />
        </mxCell>
        <mxCell id="cFev3wSajb951gtCsFEo-36" value="c_data" style="ellipse;whiteSpace=wrap;html=1;" vertex="1" parent="1">
          <mxGeometry x="375" y="730" width="70" height="40" as="geometry" />
        </mxCell>
        <mxCell id="cFev3wSajb951gtCsFEo-37" value="timestamp" style="ellipse;whiteSpace=wrap;html=1;" vertex="1" parent="1">
          <mxGeometry x="455" y="725" width="60" height="45" as="geometry" />
        </mxCell>
        <mxCell id="cFev3wSajb951gtCsFEo-38" value="post_id" style="ellipse;whiteSpace=wrap;html=1;" vertex="1" parent="1">
          <mxGeometry x="525" y="727.5" width="60" height="40" as="geometry" />
        </mxCell>
        <mxCell id="cFev3wSajb951gtCsFEo-39" value="" style="endArrow=none;html=1;rounded=0;exitX=0.5;exitY=1;exitDx=0;exitDy=0;entryX=0.888;entryY=0.036;entryDx=0;entryDy=0;entryPerimeter=0;" edge="1" parent="1" source="cFev3wSajb951gtCsFEo-45" target="cFev3wSajb951gtCsFEo-34">
          <mxGeometry width="50" height="50" relative="1" as="geometry">
            <mxPoint x="635.0000000000001" y="920" as="sourcePoint" />
            <mxPoint x="560" y="815" as="targetPoint" />
          </mxGeometry>
        </mxCell>
        <mxCell id="cFev3wSajb951gtCsFEo-40" value="" style="endArrow=none;html=1;rounded=0;exitX=0.103;exitY=-0.002;exitDx=0;exitDy=0;entryX=0.5;entryY=1;entryDx=0;entryDy=0;exitPerimeter=0;" edge="1" parent="1" source="cFev3wSajb951gtCsFEo-34" target="cFev3wSajb951gtCsFEo-35">
          <mxGeometry width="50" height="50" relative="1" as="geometry">
            <mxPoint x="400" y="815" as="sourcePoint" />
            <mxPoint x="365" y="745" as="targetPoint" />
          </mxGeometry>
        </mxCell>
        <mxCell id="cFev3wSajb951gtCsFEo-41" value="" style="endArrow=none;html=1;rounded=0;exitX=0.25;exitY=0;exitDx=0;exitDy=0;entryX=0.5;entryY=1;entryDx=0;entryDy=0;" edge="1" parent="1" source="cFev3wSajb951gtCsFEo-34" target="cFev3wSajb951gtCsFEo-36">
          <mxGeometry width="50" height="50" relative="1" as="geometry">
            <mxPoint x="440" y="815" as="sourcePoint" />
            <mxPoint x="455" y="745" as="targetPoint" />
          </mxGeometry>
        </mxCell>
        <mxCell id="cFev3wSajb951gtCsFEo-42" value="" style="endArrow=none;html=1;rounded=0;exitX=0.5;exitY=0;exitDx=0;exitDy=0;entryX=0.5;entryY=1;entryDx=0;entryDy=0;" edge="1" parent="1" source="cFev3wSajb951gtCsFEo-34" target="cFev3wSajb951gtCsFEo-37">
          <mxGeometry width="50" height="50" relative="1" as="geometry">
            <mxPoint x="502.2399999999998" y="815.8000000000002" as="sourcePoint" />
            <mxPoint x="505" y="740" as="targetPoint" />
          </mxGeometry>
        </mxCell>
        <mxCell id="cFev3wSajb951gtCsFEo-43" value="" style="endArrow=none;html=1;rounded=0;exitX=0.75;exitY=0;exitDx=0;exitDy=0;entryX=0.429;entryY=0.966;entryDx=0;entryDy=0;entryPerimeter=0;" edge="1" parent="1" source="cFev3wSajb951gtCsFEo-34" target="cFev3wSajb951gtCsFEo-38">
          <mxGeometry width="50" height="50" relative="1" as="geometry">
            <mxPoint x="520" y="815" as="sourcePoint" />
            <mxPoint x="585" y="790" as="targetPoint" />
          </mxGeometry>
        </mxCell>
        <mxCell id="cFev3wSajb951gtCsFEo-44" value="" style="endArrow=none;html=1;rounded=0;exitX=1;exitY=0.5;exitDx=0;exitDy=0;entryX=0;entryY=0.5;entryDx=0;entryDy=0;" edge="1" parent="1" target="cFev3wSajb951gtCsFEo-34" source="cFev3wSajb951gtCsFEo-46">
          <mxGeometry width="50" height="50" relative="1" as="geometry">
            <mxPoint x="240" y="855" as="sourcePoint" />
            <mxPoint x="400" y="855" as="targetPoint" />
          </mxGeometry>
        </mxCell>
        <mxCell id="cFev3wSajb951gtCsFEo-45" value="user_id" style="ellipse;whiteSpace=wrap;html=1;" vertex="1" parent="1">
          <mxGeometry x="595" y="727.5" width="60" height="40" as="geometry" />
        </mxCell>
        <mxCell id="cFev3wSajb951gtCsFEo-46" value="has" style="rhombus;whiteSpace=wrap;html=1;" vertex="1" parent="1">
          <mxGeometry x="160" y="840" width="80" height="80" as="geometry" />
        </mxCell>
        <mxCell id="cFev3wSajb951gtCsFEo-47" value="do" style="rhombus;whiteSpace=wrap;html=1;" vertex="1" parent="1">
          <mxGeometry x="680" y="840" width="80" height="80" as="geometry" />
        </mxCell>
        <mxCell id="cFev3wSajb951gtCsFEo-48" value="" style="endArrow=none;html=1;rounded=0;exitX=0.5;exitY=0;exitDx=0;exitDy=0;entryX=0.5;entryY=1;entryDx=0;entryDy=0;" edge="1" parent="1" source="cFev3wSajb951gtCsFEo-46" target="cFev3wSajb951gtCsFEo-1">
          <mxGeometry width="50" height="50" relative="1" as="geometry">
            <mxPoint x="200" y="815" as="sourcePoint" />
            <mxPoint x="410" y="605" as="targetPoint" />
          </mxGeometry>
        </mxCell>
        <mxCell id="cFev3wSajb951gtCsFEo-49" value="" style="endArrow=none;html=1;rounded=0;exitX=0.5;exitY=0;exitDx=0;exitDy=0;entryX=0.75;entryY=1;entryDx=0;entryDy=0;" edge="1" parent="1" source="cFev3wSajb951gtCsFEo-47" target="cFev3wSajb951gtCsFEo-14">
          <mxGeometry width="50" height="50" relative="1" as="geometry">
            <mxPoint x="720" y="815" as="sourcePoint" />
            <mxPoint x="410" y="605" as="targetPoint" />
          </mxGeometry>
        </mxCell>
        <mxCell id="cFev3wSajb951gtCsFEo-50" value="" style="endArrow=none;html=1;rounded=0;exitX=1;exitY=0.5;exitDx=0;exitDy=0;entryX=0;entryY=0.5;entryDx=0;entryDy=0;" edge="1" parent="1" source="cFev3wSajb951gtCsFEo-34" target="cFev3wSajb951gtCsFEo-47">
          <mxGeometry width="50" height="50" relative="1" as="geometry">
            <mxPoint x="560" y="855" as="sourcePoint" />
            <mxPoint x="680" y="855" as="targetPoint" />
          </mxGeometry>
        </mxCell>
        <mxCell id="cFev3wSajb951gtCsFEo-51" value="Community" style="rounded=0;whiteSpace=wrap;html=1;" vertex="1" parent="1">
          <mxGeometry x="120" y="160" width="160" height="80" as="geometry" />
        </mxCell>
        <mxCell id="cFev3wSajb951gtCsFEo-52" value="com_id" style="ellipse;whiteSpace=wrap;html=1;fillColor=#e1d5e7;strokeColor=#9673a6;" vertex="1" parent="1">
          <mxGeometry x="100" y="60" width="80" height="60" as="geometry" />
        </mxCell>
        <mxCell id="cFev3wSajb951gtCsFEo-53" value="" style="endArrow=none;html=1;rounded=0;exitX=0.5;exitY=1;exitDx=0;exitDy=0;entryX=0.25;entryY=0;entryDx=0;entryDy=0;" edge="1" parent="1" source="cFev3wSajb951gtCsFEo-52" target="cFev3wSajb951gtCsFEo-51">
          <mxGeometry width="50" height="50" relative="1" as="geometry">
            <mxPoint x="280" y="340" as="sourcePoint" />
            <mxPoint x="330" y="290" as="targetPoint" />
          </mxGeometry>
        </mxCell>
        <mxCell id="cFev3wSajb951gtCsFEo-54" value="community_name" style="ellipse;whiteSpace=wrap;html=1;" vertex="1" parent="1">
          <mxGeometry x="210" y="60" width="110" height="60" as="geometry" />
        </mxCell>
        <mxCell id="cFev3wSajb951gtCsFEo-55" value="" style="endArrow=none;html=1;rounded=0;entryX=0.5;entryY=1;entryDx=0;entryDy=0;exitX=0.75;exitY=0;exitDx=0;exitDy=0;" edge="1" parent="1" source="cFev3wSajb951gtCsFEo-51" target="cFev3wSajb951gtCsFEo-54">
          <mxGeometry width="50" height="50" relative="1" as="geometry">
            <mxPoint x="280" y="340" as="sourcePoint" />
            <mxPoint x="330" y="290" as="targetPoint" />
          </mxGeometry>
        </mxCell>
        <mxCell id="cFev3wSajb951gtCsFEo-56" value="" style="endArrow=none;html=1;rounded=0;exitX=0.5;exitY=0;exitDx=0;exitDy=0;" edge="1" parent="1" source="cFev3wSajb951gtCsFEo-1" target="cFev3wSajb951gtCsFEo-57">
          <mxGeometry width="50" height="50" relative="1" as="geometry">
            <mxPoint x="210" y="490" as="sourcePoint" />
            <mxPoint x="330" y="290" as="targetPoint" />
          </mxGeometry>
        </mxCell>
        <mxCell id="cFev3wSajb951gtCsFEo-57" value="has" style="rhombus;whiteSpace=wrap;html=1;" vertex="1" parent="1">
          <mxGeometry x="160" y="310" width="80" height="80" as="geometry" />
        </mxCell>
        <mxCell id="cFev3wSajb951gtCsFEo-58" value="" style="endArrow=none;html=1;rounded=0;entryX=0.5;entryY=1;entryDx=0;entryDy=0;exitX=0.5;exitY=0;exitDx=0;exitDy=0;" edge="1" parent="1" source="cFev3wSajb951gtCsFEo-57" target="cFev3wSajb951gtCsFEo-51">
          <mxGeometry width="50" height="50" relative="1" as="geometry">
            <mxPoint x="230" y="400" as="sourcePoint" />
            <mxPoint x="280" y="350" as="targetPoint" />
          </mxGeometry>
        </mxCell>
        <mxCell id="cFev3wSajb951gtCsFEo-59" value="Role" style="rounded=0;whiteSpace=wrap;html=1;" vertex="1" parent="1">
          <mxGeometry x="600" y="160" width="160" height="80" as="geometry" />
        </mxCell>
        <mxCell id="cFev3wSajb951gtCsFEo-60" value="role_id" style="ellipse;whiteSpace=wrap;html=1;fillColor=#e1d5e7;strokeColor=#9673a6;" vertex="1" parent="1">
          <mxGeometry x="580" y="50" width="90" height="70" as="geometry" />
        </mxCell>
        <mxCell id="cFev3wSajb951gtCsFEo-61" value="" style="endArrow=none;html=1;rounded=0;exitX=0.5;exitY=1;exitDx=0;exitDy=0;entryX=0.25;entryY=0;entryDx=0;entryDy=0;" edge="1" parent="1" source="cFev3wSajb951gtCsFEo-60" target="cFev3wSajb951gtCsFEo-59">
          <mxGeometry width="50" height="50" relative="1" as="geometry">
            <mxPoint x="490" y="460" as="sourcePoint" />
            <mxPoint x="540" y="410" as="targetPoint" />
          </mxGeometry>
        </mxCell>
        <mxCell id="cFev3wSajb951gtCsFEo-62" value="role_type" style="ellipse;whiteSpace=wrap;html=1;" vertex="1" parent="1">
          <mxGeometry x="690" y="50" width="90" height="70" as="geometry" />
        </mxCell>
        <mxCell id="cFev3wSajb951gtCsFEo-63" value="" style="endArrow=none;html=1;rounded=0;exitX=0.5;exitY=1;exitDx=0;exitDy=0;entryX=0.75;entryY=0;entryDx=0;entryDy=0;" edge="1" parent="1" source="cFev3wSajb951gtCsFEo-62" target="cFev3wSajb951gtCsFEo-59">
          <mxGeometry width="50" height="50" relative="1" as="geometry">
            <mxPoint x="490" y="460" as="sourcePoint" />
            <mxPoint x="540" y="410" as="targetPoint" />
          </mxGeometry>
        </mxCell>
        <mxCell id="cFev3wSajb951gtCsFEo-64" value="assigned" style="rhombus;whiteSpace=wrap;html=1;" vertex="1" parent="1">
          <mxGeometry x="640" y="315" width="80" height="80" as="geometry" />
        </mxCell>
        <mxCell id="cFev3wSajb951gtCsFEo-65" value="" style="endArrow=none;html=1;rounded=0;exitX=0.5;exitY=1;exitDx=0;exitDy=0;entryX=0.5;entryY=0;entryDx=0;entryDy=0;" edge="1" parent="1" source="cFev3wSajb951gtCsFEo-59" target="cFev3wSajb951gtCsFEo-64">
          <mxGeometry width="50" height="50" relative="1" as="geometry">
            <mxPoint x="490" y="510" as="sourcePoint" />
            <mxPoint x="540" y="460" as="targetPoint" />
          </mxGeometry>
        </mxCell>
        <mxCell id="cFev3wSajb951gtCsFEo-66" value="" style="endArrow=none;html=1;rounded=0;exitX=0.5;exitY=1;exitDx=0;exitDy=0;entryX=0.5;entryY=0;entryDx=0;entryDy=0;" edge="1" parent="1" source="cFev3wSajb951gtCsFEo-64" target="cFev3wSajb951gtCsFEo-14">
          <mxGeometry width="50" height="50" relative="1" as="geometry">
            <mxPoint x="490" y="510" as="sourcePoint" />
            <mxPoint x="540" y="460" as="targetPoint" />
          </mxGeometry>
        </mxCell>
      </root>
    </mxGraphModel>
  </diagram>
</mxfile>
